M48
; DRILL file {KiCad (5.99.0-8784-g9769da3804)} date Tuesday, February 02, 2021 at 04:43:29 PM
; FORMAT={-:-/ absolute / inch / decimal}
; #@! TF.CreationDate,2021-02-02T16:43:29+01:00
; #@! TF.GenerationSoftware,Kicad,Pcbnew,(5.99.0-8784-g9769da3804)
; #@! TF.FileFunction,Plated,1,2,PTH
FMAT,2
INCH
T1C0.0310
T2C0.0320
T3C0.0350
T4C0.0470
T5C0.0550
T6C0.0940
%
G90
G05
T1
X5.7112Y-4.0659
X5.7112Y-4.2627
X5.7112Y-4.4793
X5.7112Y-4.6761
T2
X5.4553Y-3.7706
X5.4687Y-3.6328
X5.8553Y-3.7706
X5.8687Y-3.6328
T3
X6.0065Y-3.7509
X6.2034Y-3.7509
X6.3805Y-3.7509
X6.5774Y-3.7509
T4
X5.475Y-3.4753
X5.9474Y-3.4753
X6.1049Y-3.4753
X6.5774Y-3.4753
T5
X5.5341Y-3.9675
X5.5341Y-4.5187
T6
X5.2585Y-3.5738
X5.2585Y-3.9084
X5.2585Y-4.2627
X5.2585Y-4.5974
T0
M30
