%TF.GenerationSoftware,KiCad,Pcbnew,(5.99.0-8784-g9769da3804)*%
%TF.CreationDate,2021-02-02T16:43:27+01:00*%
%TF.ProjectId,SMPS Inline Filter with M3 holes - YGL92S-A,534d5053-2049-46e6-9c69-6e652046696c,rev?*%
%TF.SameCoordinates,Original*%
%TF.FileFunction,Legend,Bot*%
%TF.FilePolarity,Positive*%
%FSLAX46Y46*%
G04 Gerber Fmt 4.6, Leading zero omitted, Abs format (unit mm)*
G04 Created by KiCad (PCBNEW (5.99.0-8784-g9769da3804)) date 2021-02-02 16:43:27*
%MOMM*%
%LPD*%
G01*
G04 APERTURE LIST*
%ADD10C,0.250000*%
%ADD11C,0.203200*%
G04 APERTURE END LIST*
D10*
X159612965Y-115310710D02*
X159565345Y-115382140D01*
X157065345Y-112167860D02*
X157160585Y-112239290D01*
X162541535Y-109025000D02*
X162493915Y-109096430D01*
X163160585Y-112096430D02*
X163112965Y-111810710D01*
X162970105Y-112882140D02*
X163065345Y-112739290D01*
X138565345Y-98727380D02*
X138803445Y-98727380D01*
X163589155Y-111810710D02*
X163541535Y-112096430D01*
X138327245Y-107870240D02*
X138279635Y-107965480D01*
X164970105Y-109667860D02*
X165065345Y-109596430D01*
X157493915Y-108953570D02*
X156922485Y-110453570D01*
X140565345Y-98727380D02*
X140470105Y-98727380D01*
X138279635Y-107965480D02*
X138232015Y-108155950D01*
X156970105Y-111953570D02*
X157017725Y-112096430D01*
X138803445Y-98727380D02*
X138803445Y-97727380D01*
X159565345Y-115382140D02*
X159612965Y-115453570D01*
X139851055Y-98727380D02*
X139851055Y-97727380D01*
X140708205Y-108679760D02*
X140565345Y-108727380D01*
X162732015Y-112953570D02*
X162827245Y-112953570D01*
X161589155Y-110382140D02*
X161541535Y-110310710D01*
X162827245Y-111453570D02*
X162732015Y-111453570D01*
X140708205Y-98679760D02*
X140565345Y-98727380D01*
X162970105Y-111525000D02*
X162827245Y-111453570D01*
X162065345Y-109382140D02*
X162065345Y-109239290D01*
X140851055Y-107965480D02*
X140898675Y-108155950D01*
X140708205Y-107775000D02*
X140803445Y-107870240D01*
X140708205Y-97775000D02*
X140803445Y-97870240D01*
X163589155Y-112596430D02*
X163636775Y-112739290D01*
X157065345Y-111525000D02*
X157017725Y-111596430D01*
X140898675Y-108155950D02*
X140898675Y-108298810D01*
X162374865Y-113953570D02*
X161993915Y-113953570D01*
X164684395Y-110382140D02*
X164636775Y-110310710D01*
X139660585Y-117632140D02*
X139612965Y-117679760D01*
X158946295Y-113953570D02*
X158612965Y-115453570D01*
X163541535Y-112310710D02*
X163589155Y-112596430D01*
X165065345Y-109596430D02*
X165112965Y-109525000D01*
X162732015Y-111453570D02*
X162589155Y-111525000D01*
X163493915Y-108953570D02*
X163493915Y-110453570D01*
X157017725Y-111596430D02*
X156970105Y-111739290D01*
X161993915Y-114739290D02*
X162374865Y-114739290D01*
X157970105Y-110453570D02*
X157970105Y-108953570D01*
X140374865Y-117727380D02*
X140565345Y-117727380D01*
X140755825Y-116870240D02*
X140660585Y-116775000D01*
X140803445Y-108584520D02*
X140708205Y-108679760D01*
X138422485Y-98679760D02*
X138565345Y-98727380D01*
X140565345Y-117727380D02*
X140660585Y-117679760D01*
X161374865Y-113953570D02*
X160898675Y-113953570D01*
X140565345Y-107727380D02*
X140708205Y-107775000D01*
X161684395Y-110453570D02*
X161589155Y-110382140D01*
X163065345Y-112739290D02*
X163112965Y-112596430D01*
X161970105Y-109025000D02*
X161874865Y-108953570D01*
X140184395Y-116870240D02*
X140136775Y-117060710D01*
X140851055Y-98489290D02*
X140803445Y-98584520D01*
X164589155Y-110167860D02*
X164589155Y-110025000D01*
X138517725Y-117727380D02*
X138517725Y-116727380D01*
X159541535Y-112953570D02*
X160017725Y-112953570D01*
X162017725Y-109096430D02*
X161970105Y-109025000D01*
X161636775Y-108953570D02*
X161493915Y-109025000D01*
X161898675Y-114025000D02*
X161851055Y-114096430D01*
X158446295Y-112953570D02*
X158446295Y-111453570D01*
X140803445Y-117060710D02*
X140755825Y-116870240D01*
X162065345Y-110382140D02*
X161922485Y-110453570D01*
X163065345Y-111667860D02*
X162970105Y-111525000D01*
X139232015Y-117679760D02*
X139184395Y-117632140D01*
X139851055Y-108727380D02*
X139851055Y-107727380D01*
X160898675Y-115453570D02*
X161374865Y-115453570D01*
X156970105Y-111739290D02*
X156970105Y-111953570D01*
X138232015Y-98155950D02*
X138232015Y-98298810D01*
X140898675Y-98298810D02*
X140851055Y-98489290D01*
X159255825Y-110453570D02*
X159255825Y-108953570D01*
X162017725Y-109525000D02*
X162065345Y-109382140D01*
X161589155Y-109810710D02*
X161684395Y-109739290D01*
X155970105Y-110453570D02*
X156446295Y-110453570D01*
X140327245Y-108679760D02*
X140279635Y-108632140D01*
X138803445Y-107727380D02*
X138565345Y-107727380D01*
X156446295Y-109667860D02*
X156112965Y-109667860D01*
X163017725Y-108953570D02*
X162636775Y-108953570D01*
X139279635Y-98727380D02*
X139279635Y-97727380D01*
X165112965Y-109525000D02*
X165160585Y-109382140D01*
X158303445Y-110453570D02*
X158779635Y-110453570D01*
X165112965Y-109096430D02*
X165065345Y-109025000D01*
X162541535Y-109667860D02*
X162636775Y-109739290D01*
X140422485Y-97727380D02*
X140565345Y-97727380D01*
X165160585Y-110382140D02*
X165017725Y-110453570D01*
X139612965Y-117679760D02*
X139517725Y-117727380D01*
X140803445Y-107870240D02*
X140851055Y-107965480D01*
X163874865Y-112953570D02*
X164112965Y-112953570D01*
X140803445Y-98584520D02*
X140708205Y-98679760D01*
X140279635Y-108632140D02*
X140279635Y-108298810D01*
X159279635Y-115453570D02*
X158946295Y-113953570D01*
X161851055Y-114596430D02*
X161898675Y-114667860D01*
D11*
X144595345Y-119975000D02*
X143325345Y-119975000D01*
D10*
X138422485Y-97775000D02*
X138327245Y-97870240D01*
X140755825Y-117584520D02*
X140803445Y-117394050D01*
X140374865Y-116727380D02*
X140279635Y-116775000D01*
X164112965Y-112953570D02*
X164112965Y-111453570D01*
D11*
X144595345Y-109475000D02*
X143325345Y-109475000D01*
D10*
X163732015Y-112882140D02*
X163874865Y-112953570D01*
X165065345Y-109025000D02*
X164970105Y-108953570D01*
X162541535Y-112810710D02*
X162589155Y-112882140D01*
X138803445Y-116727380D02*
X138232015Y-116727380D01*
X138232015Y-108155950D02*
X138232015Y-108298810D01*
X161993915Y-113953570D02*
X161898675Y-114025000D01*
X157970105Y-112953570D02*
X158446295Y-112953570D01*
X138565345Y-97727380D02*
X138422485Y-97775000D01*
X139708205Y-117536910D02*
X139660585Y-117632140D01*
X140279635Y-108298810D02*
X140470105Y-108298810D01*
X138803445Y-108727380D02*
X138803445Y-107727380D01*
X156446295Y-110453570D02*
X156446295Y-108953570D01*
X163112965Y-111810710D02*
X163065345Y-111667860D01*
X138422485Y-108679760D02*
X138565345Y-108727380D01*
X140279635Y-116775000D02*
X140184395Y-116870240D01*
X140184395Y-117584520D02*
X140279635Y-117679760D01*
X138565345Y-108727380D02*
X138803445Y-108727380D01*
X159612965Y-115310710D02*
X159612965Y-115453570D01*
X139851055Y-97727380D02*
X139279635Y-98727380D01*
X160279635Y-115453570D02*
X159946295Y-113953570D01*
X140898675Y-98155950D02*
X140898675Y-98298810D01*
X140565345Y-116727380D02*
X140374865Y-116727380D01*
X139089155Y-90727380D02*
X139089155Y-89727380D01*
X162446295Y-109239290D02*
X162446295Y-109453570D01*
X157541535Y-111453570D02*
X157160585Y-111453570D01*
X161374865Y-115453570D02*
X161374865Y-113953570D01*
X164779635Y-109739290D02*
X164970105Y-109667860D01*
X158779635Y-110453570D02*
X158779635Y-108953570D01*
X161874865Y-109667860D02*
X161970105Y-109596430D01*
X138041535Y-90727380D02*
X138041535Y-89727380D01*
X161922485Y-110453570D02*
X161684395Y-110453570D01*
X160017725Y-112953570D02*
X160017725Y-111453570D01*
X162636775Y-109739290D02*
X163017725Y-109739290D01*
X140660585Y-117679760D02*
X140755825Y-117584520D01*
X140327245Y-97775000D02*
X140422485Y-97727380D01*
X161493915Y-110167860D02*
X161493915Y-110025000D01*
D11*
X143960345Y-119340000D02*
X143960345Y-120610000D01*
D10*
X164112965Y-111453570D02*
X163874865Y-111453570D01*
X139184395Y-117632140D02*
X139136775Y-117536910D01*
X161541535Y-110310710D02*
X161493915Y-110167860D01*
X163636775Y-112739290D02*
X163732015Y-112882140D01*
X162636775Y-108953570D02*
X162541535Y-109025000D01*
X157541535Y-112953570D02*
X157541535Y-111453570D01*
X162827245Y-112953570D02*
X162970105Y-112882140D01*
X138612965Y-90727380D02*
X138612965Y-89727380D01*
X164779635Y-110453570D02*
X164684395Y-110382140D01*
X139708205Y-116727380D02*
X139708205Y-117536910D01*
X157493915Y-110453570D02*
X157493915Y-108953570D01*
X157160585Y-111453570D02*
X157065345Y-111525000D01*
X138279635Y-97965480D02*
X138232015Y-98155950D01*
X140279635Y-98298810D02*
X140470105Y-98298810D01*
X138565345Y-107727380D02*
X138422485Y-107775000D01*
X140136775Y-117394050D02*
X140184395Y-117584520D01*
X140470105Y-108727380D02*
X140327245Y-108679760D01*
X164160585Y-108953570D02*
X163827245Y-110025000D01*
X138422485Y-107775000D02*
X138327245Y-107870240D01*
X140851055Y-97965480D02*
X140898675Y-98155950D01*
X138279635Y-98489290D02*
X138327245Y-98584520D01*
X165160585Y-109239290D02*
X165112965Y-109096430D01*
X162493915Y-109096430D02*
X162446295Y-109239290D01*
X138327245Y-108584520D02*
X138422485Y-108679760D01*
X139279635Y-108727380D02*
X139279635Y-107727380D01*
X163732015Y-111525000D02*
X163636775Y-111667860D01*
X165160585Y-109382140D02*
X165160585Y-109239290D01*
X164636775Y-109882140D02*
X164684395Y-109810710D01*
X139136775Y-117536910D02*
X139136775Y-116727380D01*
X162374865Y-115453570D02*
X162374865Y-113953570D01*
X160303445Y-110453570D02*
X160303445Y-108953570D01*
D11*
X143960345Y-108840000D02*
X143960345Y-110110000D01*
D10*
X138279635Y-108489290D02*
X138327245Y-108584520D01*
X139851055Y-107727380D02*
X139279635Y-108727380D01*
X161493915Y-110025000D02*
X161541535Y-109882140D01*
X140470105Y-98727380D02*
X140327245Y-98679760D01*
X163160585Y-112310710D02*
X163160585Y-112096430D01*
X138612965Y-89727380D02*
X138041535Y-90727380D01*
X139327245Y-117727380D02*
X139232015Y-117679760D01*
X164636775Y-110310710D02*
X164589155Y-110167860D01*
X161374865Y-114667860D02*
X161041535Y-114667860D01*
X160493915Y-112953570D02*
X160493915Y-111453570D01*
X161684395Y-109739290D02*
X161874865Y-109667860D01*
X138232015Y-98298810D02*
X138279635Y-98489290D01*
X140279635Y-98632140D02*
X140279635Y-98298810D01*
X140898675Y-108298810D02*
X140851055Y-108489290D01*
X162493915Y-109596430D02*
X162541535Y-109667860D01*
X161541535Y-109882140D02*
X161589155Y-109810710D01*
X156922485Y-110453570D02*
X156922485Y-108953570D01*
X163827245Y-110025000D02*
X163493915Y-108953570D01*
X140565345Y-97727380D02*
X140708205Y-97775000D01*
X159184395Y-115025000D02*
X158708205Y-115025000D01*
X162065345Y-109239290D02*
X162017725Y-109096430D01*
X161017725Y-112167860D02*
X161351055Y-112167860D01*
X161803445Y-114453570D02*
X161851055Y-114596430D01*
X159827255Y-108953570D02*
X159255825Y-110453570D01*
X163112965Y-112596430D02*
X163160585Y-112310710D01*
X140327245Y-98679760D02*
X140279635Y-98632140D01*
X164732015Y-108953570D02*
X164589155Y-109025000D01*
X163874865Y-111453570D02*
X163732015Y-111525000D01*
X165017725Y-110453570D02*
X164779635Y-110453570D01*
X158446295Y-111453570D02*
X157970105Y-111453570D01*
X138232015Y-108298810D02*
X138279635Y-108489290D01*
X138327245Y-97870240D02*
X138279635Y-97965480D01*
X157017725Y-112096430D02*
X157065345Y-112167860D01*
X159827255Y-110453570D02*
X159827255Y-108953570D01*
X140851055Y-108489290D02*
X140803445Y-108584520D01*
X163017725Y-110453570D02*
X163017725Y-108953570D01*
X163636775Y-111667860D02*
X163589155Y-111810710D01*
X140422485Y-107727380D02*
X140565345Y-107727380D01*
X161898675Y-114667860D02*
X161993915Y-114739290D01*
X140803445Y-117394050D02*
X140803445Y-117060710D01*
X163541535Y-112096430D02*
X163541535Y-112310710D01*
X159351055Y-111453570D02*
X158779635Y-111453570D01*
X161351055Y-112953570D02*
X161351055Y-111453570D01*
X161874865Y-108953570D02*
X161636775Y-108953570D01*
X140327245Y-107775000D02*
X140422485Y-107727380D01*
X162446295Y-109453570D02*
X162493915Y-109596430D01*
X156970105Y-112953570D02*
X157303445Y-112239290D01*
X157160585Y-112239290D02*
X157541535Y-112239290D01*
X159660585Y-115382140D02*
X159612965Y-115310710D01*
X164970105Y-108953570D02*
X164732015Y-108953570D01*
X156446295Y-108953570D02*
X155970105Y-108953570D01*
X138803445Y-97727380D02*
X138565345Y-97727380D01*
X140136775Y-117060710D02*
X140136775Y-117394050D01*
X161970105Y-109596430D02*
X162017725Y-109525000D01*
X139517725Y-117727380D02*
X139327245Y-117727380D01*
X164684395Y-109810710D02*
X164779635Y-109739290D01*
X158446295Y-112167860D02*
X158112965Y-112167860D01*
X140660585Y-116775000D02*
X140565345Y-116727380D01*
X159612965Y-115453570D02*
X159660585Y-115382140D01*
X140279635Y-117679760D02*
X140374865Y-117727380D01*
X138327245Y-98584520D02*
X138422485Y-98679760D01*
X161351055Y-111453570D02*
X160874865Y-111453570D01*
X164589155Y-110025000D02*
X164636775Y-109882140D01*
X164160585Y-110453570D02*
X164160585Y-108953570D01*
X140803445Y-97870240D02*
X140851055Y-97965480D01*
X162589155Y-111525000D02*
X162541535Y-111596430D01*
X159065345Y-112953570D02*
X159065345Y-111453570D01*
X140565345Y-108727380D02*
X140470105Y-108727380D01*
X162589155Y-112882140D02*
X162732015Y-112953570D01*
X161803445Y-114239290D02*
X161803445Y-114453570D01*
X161851055Y-114096430D02*
X161803445Y-114239290D01*
X161803445Y-115453570D02*
X162136775Y-114739290D01*
X160612965Y-113953570D02*
X160279635Y-115453570D01*
M02*
